<!-- PrimePOS Logo - Variation 1: POS Terminal + Receipt -->
<!-- Full Logo -->
<svg width="180" height="40" viewBox="0 0 180 40" fill="none" xmlns="http://www.w3.org/2000/svg">
  <!-- Icon: POS Terminal -->
  <g>
    <!-- Terminal Base -->
    <rect x="2" y="8" width="24" height="24" rx="2" fill="#0f172a"/>
    <!-- Screen -->
    <rect x="5" y="11" width="18" height="12" rx="1" fill="#ffffff"/>
    <!-- Screen Lines -->
    <line x1="7" y1="14" x2="20" y2="14" stroke="#0f172a" stroke-width="0.8"/>
    <line x1="7" y1="17" x2="18" y2="17" stroke="#0f172a" stroke-width="0.8"/>
    <line x1="7" y1="20" x2="16" y2="20" stroke="#0f172a" stroke-width="0.8"/>
    <!-- Receipt -->
    <rect x="20" y="26" width="6" height="6" rx="0.5" fill="#ffffff"/>
    <line x1="22" y1="28" x2="24" y2="28" stroke="#0f172a" stroke-width="0.6"/>
    <line x1="22" y1="30" x2="24" y2="30" stroke="#0f172a" stroke-width="0.6"/>
  </g>
  <!-- Text -->
  <text x="32" y="28" font-family="Inter, system-ui, -apple-system, sans-serif" font-size="20" font-weight="700" fill="#0f172a" letter-spacing="-0.5">PrimePOS</text>
</svg>

<!-- Icon Only -->
<svg width="32" height="32" viewBox="0 0 32 32" fill="none" xmlns="http://www.w3.org/2000/svg">
  <!-- Terminal Base -->
  <rect x="4" y="6" width="24" height="20" rx="2" fill="#0f172a"/>
  <!-- Screen -->
  <rect x="7" y="9" width="18" height="12" rx="1" fill="#ffffff"/>
  <!-- Screen Lines -->
  <line x1="9" y1="12" x2="22" y2="12" stroke="#0f172a" stroke-width="0.8"/>
  <line x1="9" y1="15" x2="20" y2="15" stroke="#0f172a" stroke-width="0.8"/>
  <line x1="9" y1="18" x2="18" y2="18" stroke="#0f172a" stroke-width="0.8"/>
  <!-- Receipt -->
  <rect x="22" y="24" width="6" height="6" rx="0.5" fill="#ffffff"/>
  <line x1="24" y1="26" x2="26" y2="26" stroke="#0f172a" stroke-width="0.6"/>
  <line x1="24" y1="28" x2="26" y2="28" stroke="#0f172a" stroke-width="0.6"/>
</svg>

