<!-- PrimePOS Logo - Variation 2: Modern Monogram "P" with Grid -->
<!-- Full Logo -->
<svg width="180" height="40" viewBox="0 0 180 40" fill="none" xmlns="http://www.w3.org/2000/svg">
  <!-- Icon: Stylized "P" with Grid -->
  <g>
    <!-- Grid Background -->
    <rect x="2" y="6" width="26" height="26" rx="3" fill="#f4f4f5"/>
    <line x1="8" y1="12" x2="8" y2="28" stroke="#e5e7eb" stroke-width="1"/>
    <line x1="14" y1="12" x2="14" y2="28" stroke="#e5e7eb" stroke-width="1"/>
    <line x1="20" y1="12" x2="20" y2="28" stroke="#e5e7eb" stroke-width="1"/>
    <line x1="2" y1="18" x2="28" y2="18" stroke="#e5e7eb" stroke-width="1"/>
    <!-- Letter "P" -->
    <path d="M8 10 L8 28 L18 28 C22 28 24 26 24 22 C24 18 22 16 18 16 L8 16 Z" fill="#0f172a"/>
    <rect x="8" y="10" width="8" height="6" fill="#0f172a"/>
  </g>
  <!-- Text -->
  <text x="34" y="28" font-family="Inter, system-ui, -apple-system, sans-serif" font-size="20" font-weight="700" fill="#0f172a" letter-spacing="-0.5">PrimePOS</text>
</svg>

<!-- Icon Only -->
<svg width="32" height="32" viewBox="0 0 32 32" fill="none" xmlns="http://www.w3.org/2000/svg">
  <!-- Grid Background -->
  <rect x="2" y="2" width="28" height="28" rx="4" fill="#f4f4f5"/>
  <line x1="8" y1="8" x2="8" y2="30" stroke="#e5e7eb" stroke-width="1"/>
  <line x1="14" y1="8" x2="14" y2="30" stroke="#e5e7eb" stroke-width="1"/>
  <line x1="20" y1="8" x2="20" y2="30" stroke="#e5e7eb" stroke-width="1"/>
  <line x1="26" y1="8" x2="26" y2="30" stroke="#e5e7eb" stroke-width="1"/>
  <line x1="2" y1="14" x2="30" y2="14" stroke="#e5e7eb" stroke-width="1"/>
  <line x1="2" y1="20" x2="30" y2="20" stroke="#e5e7eb" stroke-width="1"/>
  <line x1="2" y1="26" x2="30" y2="26" stroke="#e5e7eb" stroke-width="1"/>
  <!-- Letter "P" -->
  <path d="M8 6 L8 30 L18 30 C24 30 26 26 26 20 C26 14 24 10 18 10 L8 10 Z" fill="#0f172a"/>
  <rect x="8" y="6" width="10" height="8" fill="#0f172a"/>
</svg>

