<!-- PrimePOS Logo - Variation 3: Scanner/Barcode with Checkmark -->
<!-- Full Logo -->
<svg width="180" height="40" viewBox="0 0 180 40" fill="none" xmlns="http://www.w3.org/2000/svg">
  <!-- Icon: Scanner with Checkmark -->
  <g>
    <!-- Scanner Base -->
    <rect x="2" y="8" width="26" height="24" rx="2" fill="#0f172a"/>
    <!-- Barcode Lines -->
    <rect x="5" y="12" width="2" height="16" fill="#ffffff"/>
    <rect x="9" y="12" width="1.5" height="16" fill="#ffffff"/>
    <rect x="12" y="12" width="2.5" height="16" fill="#ffffff"/>
    <rect x="16" y="12" width="1" height="16" fill="#ffffff"/>
    <rect x="19" y="12" width="2" height="16" fill="#ffffff"/>
    <rect x="23" y="12" width="1.5" height="16" fill="#ffffff"/>
    <!-- Scan Line -->
    <line x1="5" y1="20" x2="25" y2="20" stroke="#ffffff" stroke-width="1.5" opacity="0.6"/>
    <!-- Checkmark -->
    <circle cx="20" cy="28" r="4" fill="#ffffff"/>
    <path d="M18 28 L19.5 29.5 L22 27" stroke="#0f172a" stroke-width="1.5" stroke-linecap="round" stroke-linejoin="round" fill="none"/>
  </g>
  <!-- Text -->
  <text x="34" y="28" font-family="Inter, system-ui, -apple-system, sans-serif" font-size="20" font-weight="700" fill="#0f172a" letter-spacing="-0.5">PrimePOS</text>
</svg>

<!-- Icon Only -->
<svg width="32" height="32" viewBox="0 0 32 32" fill="none" xmlns="http://www.w3.org/2000/svg">
  <!-- Scanner Base -->
  <rect x="4" y="4" width="24" height="24" rx="3" fill="#0f172a"/>
  <!-- Barcode Lines -->
  <rect x="7" y="8" width="2.5" height="18" fill="#ffffff"/>
  <rect x="11" y="8" width="2" height="18" fill="#ffffff"/>
  <rect x="15" y="8" width="3" height="18" fill="#ffffff"/>
  <rect x="20" y="8" width="1.5" height="18" fill="#ffffff"/>
  <rect x="23" y="8" width="2.5" height="18" fill="#ffffff"/>
  <!-- Scan Line -->
  <line x1="7" y1="18" x2="25" y2="18" stroke="#ffffff" stroke-width="2" opacity="0.7"/>
  <!-- Checkmark -->
  <circle cx="20" cy="24" r="5" fill="#ffffff"/>
  <path d="M17.5 24 L19.5 26 L22.5 22.5" stroke="#0f172a" stroke-width="2" stroke-linecap="round" stroke-linejoin="round" fill="none"/>
</svg>

